<?xml version="1.0" encoding="utf-8"?>
<!-- Generator: Adobe Illustrator 23.0.4, SVG Export Plug-In . SVG Version: 6.00 Build 0)  -->
<svg version="1.1" id="Layer_1" xmlns="http://www.w3.org/2000/svg" xmlns:xlink="http://www.w3.org/1999/xlink" x="0px" y="0px"
	 viewBox="0 0 1148 998" style="enable-background:new 0 0 1148 998;" xml:space="preserve">
<style type="text/css">
	.st0{fill:#CD1E4F;}
	.st1{fill:#FCBF10;}
	.st2{fill:#2E2F5B;}
	.st3{fill:#292B4F;}
	.st4{fill:#FFFFFF;}
	.st5{fill:#FFFFFF;stroke:#E6E5E7;stroke-miterlimit:10;}
	.st6{fill:#C9952C;}
	.st7{fill:#1A1D39;}
	.st8{fill:#ED2551;}
</style>
<g>
	<path class="st0" d="M309.1,448.5c0,0-101.5,25.6-125.6,36.5s-57.1,3.3-57.1,3.3s-8.1,102.2,128.3,126.9c0,0,86-7.2,154.4,49
		s87.5,33.4,87.5,33.4l43.3-329l-94.7,13.1L309.1,448.5z"/>
	<polygon class="st1" points="456.6,754.2 435.1,834.3 455.7,821.3 450.5,862.7 481.5,826.6 483.1,854.2 536.9,768.1 	"/>
	<polygon class="st1" points="662.1,763.2 640.7,838.3 670.2,819.3 670.7,858.6 696,820.4 705,837.8 754.8,743.6 	"/>
	<path class="st2" d="M525.7,381.6c0,0-166.6,22.8-94,192.2c0,0,76.6-107.2,130.5-131.2L525.7,381.6z"/>
	<path class="st3" d="M883.4,387c0,0,61.6-60.1,93.4-125.7c0,0,75.2,56.3-0.5,154.1s-134.1,51.9-134.1,51.9L883.4,387z"/>
	<path class="st2" d="M737,775.2c41.7-16.9,39.4-68.2,39.4-68.2s32.4-97,72.5-171c34.6-63.8,63.6-183,63.6-183
		c-2.2-44.5-12-95.7-45.1-156.8c0,0-28.2-65.5-137.2-58.6c-109,6.9-158.2,44.4-186.6,127.7c-28.5,83.2-23.1,159.3-23.1,159.3
		s-6.1,142.6-50.7,251.6c0,0-24.3,26.9-17.2,91c0,0,29,33.4,66.9,17.8c10.1-4.2,19.4-8.3,28.3-12.1c5.2-2.2,10.2-4.3,15.2-6.1
		c18.5-7,30.3-12.9,50.9-10.7c35.7,3.9,81.5,16.2,81.5,16.2s0,0,0.1,0.1c0.1,0,0.2,0.1,0.4,0.2C695.9,772.4,713.3,780,737,775.2z"/>
	<path class="st4" d="M912.4,353c0,0-29.1,119.2-63.6,183C808.7,610,778,705.7,778,705.7s0.7,52.7-41,69.5
		c-23.7,4.8-41.1-2.9-41.1-2.9c-0.2-0.1-0.3-0.2-0.4-0.2c-0.1,0-0.1-0.1-0.1-0.1s-45.8-12.2-81.5-16.2c-20.6-2.2-32.4,3.7-50.9,10.7
		c-5,1.8-10,3.9-15.2,6.1c-8.9,3.8-18.2,7.9-28.3,12.1c0,0,11-67.5,50.8-127.5c64.1-96.7,71.2-224.2,71.2-224.2s-0.3-4.6,1.7-10.2
		c9.8-27.7,43.8-108.1,87.4-101.3c52.5,8.2,77,39.2,119.3,20.8C892,323.9,912.4,353,912.4,353"/>
	<path class="st5" d="M912.4,353"/>
	<path class="st5" d="M875.2,478.1c-7.4,21.7-17.1,41-26.3,58c-40.1,74-70.8,169.7-70.8,169.7s0.7,52.7-41,69.5
		c-23.7,4.8-41.1-2.9-41.1-2.9c-0.2-0.1-0.3-0.2-0.4-0.2c-0.1,0-0.1-0.1-0.1-0.1s-45.8-12.2-81.5-16.2c-20.6-2.2-32.4,3.7-50.9,10.7
		c-5,1.8-10,3.9-15.2,6.1c-8.9,3.8-18.2,7.9-28.3,12.1"/>
	<path class="st2" d="M911.2,470.6c0,0.1,0,0.1,0,0.1"/>
	
		<ellipse transform="matrix(0.2923 -0.9563 0.9563 0.2923 310.4779 859.2347)" class="st4" cx="735.8" cy="219.8" rx="31.4" ry="30.1"/>
	<ellipse transform="matrix(0.2923 -0.9563 0.9563 0.2923 326.7647 860.4498)" cx="744.8" cy="209.4" rx="13.3" ry="12.8"/>
	<path class="st2" d="M768.6,200.6c-2.6-5.8-6.7-11-12.4-14.6c-15.7-10-36.9-4.7-47.4,11.7c0,0,43.1-5.4,60.5,5.3
		C769.3,203,769.7,203,768.6,200.6z"/>
	
		<ellipse transform="matrix(0.2923 -0.9563 0.9563 0.2923 388.3904 939.046)" class="st4" cx="828.7" cy="207.1" rx="25.4" ry="24.4"/>
	<ellipse transform="matrix(0.2923 -0.9563 0.9563 0.2923 401.1014 935.4468)" cx="832.6" cy="196.7" rx="10.6" ry="10.1"/>
	<path class="st2" d="M848.9,187.5c-3.1-4.2-7.3-7.7-12.5-9.5c-14.3-5-30.4,3.6-35.8,19.2c0,0,33.5-13.2,49.3-7.9
		C849.8,189.4,850.2,189.3,848.9,187.5z"/>
	<path class="st1" d="M783.4,219.4l132-24.1l-67.6,65.3c0,0-8.2,4.4-27.2,5.2C801.6,266.5,782.4,261.3,783.4,219.4z"/>
	<path class="st6" d="M787.1,243.1c2.5,0.2,5.5,0.1,8.3-0.1c2.8-0.2,5.6-0.6,8.5-1.1c5.6-1,11.2-2.4,16.7-4
		c11-3.3,21.7-7.7,32.2-12.6c5.2-2.5,10.4-5.1,15.6-7.7l15.6-7.7l15.7-7.6c5.3-2.5,10.5-5,15.9-7.1c-5.3,2.2-10.5,5-15.6,7.6
		l-15.4,8.1l-15.3,8.2c-5.1,2.8-10.2,5.5-15.4,8.2c-10.4,5.2-21.1,9.9-32.2,13.6c-5.6,1.8-11.2,3.4-17,4.6c-2.9,0.6-5.8,1.1-8.8,1.4
		c-3,0.3-5.8,0.5-9.1,0.3L787.1,243.1z"/>
	<path class="st7" d="M761.6,199.8c-5.7-1-11.5-1.4-17.3-1.6c-5.8-0.2-11.6-0.1-17.4,0.2c-2.9,0.2-5.8,0.4-8.6,0.8
		c-2.9,0.3-5.7,0.6-8.6,0.7c-1.4,0-2.9,0.1-4.3,0.2c-1.5,0-2.9,0.1-4.4,0.1c-2.9,0.1-5.8,0.1-8.8-0.1l-0.1-0.5
		c5.5-2.3,11.3-3.8,17.1-4.7c5.8-1,11.8-0.6,17.7-0.6c5.9,0.2,11.8,0.6,17.6,1.3c5.8,0.8,11.6,1.8,17.3,3.6L761.6,199.8z"/>
	<path class="st7" d="M804.1,194.9c4.2-1.3,8.4-2.4,12.7-3.6c4.3-1.1,8.5-2.1,12.9-3c4.3-0.9,8.6-2,13.1-2.3
		c4.4-0.3,8.9-0.4,13.3,0.8v0.3c-4.4,0.5-8.6,1.2-12.9,1.9c-4.3,0.7-8.6,1-13,1.6c-4.3,0.6-8.7,1.3-13,2.1
		c-4.3,0.7-8.6,1.5-12.9,2.4L804.1,194.9z"/>
	<path class="st8" d="M594,380.9c0,0-38.1-53.1-109.9-41.5S315.1,447.9,234.7,469c0,0,65.5,14.5,156.3-44.2S594,380.9,594,380.9z"/>
</g>
</svg>
